<mxfile host="app.diagrams.net" agent="Mozilla/5.0 (Windows NT 10.0; Win64; x64) AppleWebKit/537.36 (KHTML, like Gecko) Chrome/138.0.0.0 Safari/537.36" version="28.0.7">
  <diagram name="第 1 页" id="iy0fy7daAVdncKBm4TBp">
    <mxGraphModel dx="1426" dy="751" grid="1" gridSize="10" guides="1" tooltips="1" connect="1" arrows="1" fold="1" page="1" pageScale="1" pageWidth="827" pageHeight="1169" math="0" shadow="0">
      <root>
        <mxCell id="0" />
        <mxCell id="1" parent="0" />
        <mxCell id="acAV0KXZN9HWhHTJ8w7O-3" value="" style="rounded=1;whiteSpace=wrap;html=1;dashed=1;" vertex="1" parent="1">
          <mxGeometry x="40" y="270" width="310" height="190" as="geometry" />
        </mxCell>
        <mxCell id="acAV0KXZN9HWhHTJ8w7O-4" value="&lt;div&gt;词性解析错误&lt;/div&gt;&lt;div&gt;678&lt;/div&gt;" style="rounded=1;whiteSpace=wrap;html=1;fontColor=light-dark(#6d6969, #ededed);strokeColor=light-dark(#747272, #ededed);" vertex="1" parent="1">
          <mxGeometry x="70" y="290" width="80" height="30" as="geometry" />
        </mxCell>
        <mxCell id="acAV0KXZN9HWhHTJ8w7O-5" value="召回异常&lt;div&gt;356&lt;/div&gt;" style="rounded=1;whiteSpace=wrap;html=1;fontColor=light-dark(#6d6969, #ededed);strokeColor=light-dark(#747272, #ededed);" vertex="1" parent="1">
          <mxGeometry x="170" y="290" width="70" height="30" as="geometry" />
        </mxCell>
        <mxCell id="acAV0KXZN9HWhHTJ8w7O-6" value="无供给&lt;br&gt;&lt;div&gt;199&lt;/div&gt;" style="rounded=1;whiteSpace=wrap;html=1;fontColor=light-dark(#6d6969, #ededed);labelBorderColor=none;strokeColor=light-dark(#747272, #ededed);" vertex="1" parent="1">
          <mxGeometry x="260" y="290" width="70" height="30" as="geometry" />
        </mxCell>
        <mxCell id="acAV0KXZN9HWhHTJ8w7O-7" value="" style="shape=table;startSize=0;container=1;collapsible=0;childLayout=tableLayout;fontSize=12;" vertex="1" parent="1">
          <mxGeometry x="60" y="355" width="280" height="80" as="geometry" />
        </mxCell>
        <mxCell id="acAV0KXZN9HWhHTJ8w7O-8" value="" style="shape=tableRow;horizontal=0;startSize=0;swimlaneHead=0;swimlaneBody=0;strokeColor=inherit;top=0;left=0;bottom=0;right=0;collapsible=0;dropTarget=0;fillColor=none;points=[[0,0.5],[1,0.5]];portConstraint=eastwest;fontSize=12;" vertex="1" parent="acAV0KXZN9HWhHTJ8w7O-7">
          <mxGeometry width="280" height="25" as="geometry" />
        </mxCell>
        <mxCell id="acAV0KXZN9HWhHTJ8w7O-9" value="搜词" style="shape=partialRectangle;html=1;whiteSpace=wrap;connectable=0;strokeColor=#56517e;overflow=hidden;fillColor=#d0cee2;top=0;left=0;bottom=0;right=0;pointerEvents=1;fontSize=12;" vertex="1" parent="acAV0KXZN9HWhHTJ8w7O-8">
          <mxGeometry width="56" height="25" as="geometry">
            <mxRectangle width="56" height="25" as="alternateBounds" />
          </mxGeometry>
        </mxCell>
        <mxCell id="acAV0KXZN9HWhHTJ8w7O-10" value="出发城市" style="shape=partialRectangle;html=1;whiteSpace=wrap;connectable=0;strokeColor=#56517e;overflow=hidden;fillColor=#d0cee2;top=0;left=0;bottom=0;right=0;pointerEvents=1;fontSize=12;" vertex="1" parent="acAV0KXZN9HWhHTJ8w7O-8">
          <mxGeometry x="56" width="56" height="25" as="geometry">
            <mxRectangle width="56" height="25" as="alternateBounds" />
          </mxGeometry>
        </mxCell>
        <mxCell id="acAV0KXZN9HWhHTJ8w7O-11" value="出现次数" style="shape=partialRectangle;html=1;whiteSpace=wrap;connectable=0;strokeColor=#56517e;overflow=hidden;fillColor=#d0cee2;top=0;left=0;bottom=0;right=0;pointerEvents=1;fontSize=12;" vertex="1" parent="acAV0KXZN9HWhHTJ8w7O-8">
          <mxGeometry x="112" width="56" height="25" as="geometry">
            <mxRectangle width="56" height="25" as="alternateBounds" />
          </mxGeometry>
        </mxCell>
        <mxCell id="acAV0KXZN9HWhHTJ8w7O-12" value="重要性" style="shape=partialRectangle;html=1;whiteSpace=wrap;connectable=0;strokeColor=#56517e;overflow=hidden;fillColor=#d0cee2;top=0;left=0;bottom=0;right=0;pointerEvents=1;fontSize=12;" vertex="1" parent="acAV0KXZN9HWhHTJ8w7O-8">
          <mxGeometry x="168" width="56" height="25" as="geometry">
            <mxRectangle width="56" height="25" as="alternateBounds" />
          </mxGeometry>
        </mxCell>
        <mxCell id="acAV0KXZN9HWhHTJ8w7O-23" value="操作" style="shape=partialRectangle;html=1;whiteSpace=wrap;connectable=0;strokeColor=#56517e;overflow=hidden;fillColor=#d0cee2;top=0;left=0;bottom=0;right=0;pointerEvents=1;fontSize=12;" vertex="1" parent="acAV0KXZN9HWhHTJ8w7O-8">
          <mxGeometry x="224" width="56" height="25" as="geometry">
            <mxRectangle width="56" height="25" as="alternateBounds" />
          </mxGeometry>
        </mxCell>
        <mxCell id="acAV0KXZN9HWhHTJ8w7O-13" value="" style="shape=tableRow;horizontal=0;startSize=0;swimlaneHead=0;swimlaneBody=0;strokeColor=inherit;top=0;left=0;bottom=0;right=0;collapsible=0;dropTarget=0;fillColor=none;points=[[0,0.5],[1,0.5]];portConstraint=eastwest;fontSize=12;" vertex="1" parent="acAV0KXZN9HWhHTJ8w7O-7">
          <mxGeometry y="25" width="280" height="30" as="geometry" />
        </mxCell>
        <mxCell id="acAV0KXZN9HWhHTJ8w7O-14" value="三亚" style="shape=partialRectangle;html=1;whiteSpace=wrap;connectable=0;strokeColor=inherit;overflow=hidden;fillColor=none;top=0;left=0;bottom=0;right=0;pointerEvents=1;fontSize=12;" vertex="1" parent="acAV0KXZN9HWhHTJ8w7O-13">
          <mxGeometry width="56" height="30" as="geometry">
            <mxRectangle width="56" height="30" as="alternateBounds" />
          </mxGeometry>
        </mxCell>
        <mxCell id="acAV0KXZN9HWhHTJ8w7O-15" value="上海" style="shape=partialRectangle;html=1;whiteSpace=wrap;connectable=0;strokeColor=inherit;overflow=hidden;fillColor=none;top=0;left=0;bottom=0;right=0;pointerEvents=1;fontSize=12;" vertex="1" parent="acAV0KXZN9HWhHTJ8w7O-13">
          <mxGeometry x="56" width="56" height="30" as="geometry">
            <mxRectangle width="56" height="30" as="alternateBounds" />
          </mxGeometry>
        </mxCell>
        <mxCell id="acAV0KXZN9HWhHTJ8w7O-16" value="15" style="shape=partialRectangle;html=1;whiteSpace=wrap;connectable=0;strokeColor=inherit;overflow=hidden;fillColor=none;top=0;left=0;bottom=0;right=0;pointerEvents=1;fontSize=12;" vertex="1" parent="acAV0KXZN9HWhHTJ8w7O-13">
          <mxGeometry x="112" width="56" height="30" as="geometry">
            <mxRectangle width="56" height="30" as="alternateBounds" />
          </mxGeometry>
        </mxCell>
        <mxCell id="acAV0KXZN9HWhHTJ8w7O-17" value="P0" style="shape=partialRectangle;html=1;whiteSpace=wrap;connectable=0;strokeColor=inherit;overflow=hidden;fillColor=none;top=0;left=0;bottom=0;right=0;pointerEvents=1;fontSize=12;" vertex="1" parent="acAV0KXZN9HWhHTJ8w7O-13">
          <mxGeometry x="168" width="56" height="30" as="geometry">
            <mxRectangle width="56" height="30" as="alternateBounds" />
          </mxGeometry>
        </mxCell>
        <mxCell id="acAV0KXZN9HWhHTJ8w7O-24" value="&lt;span style=&quot;color: rgb(0, 0, 255);&quot;&gt;记IQ&lt;/span&gt;" style="shape=partialRectangle;html=1;whiteSpace=wrap;connectable=0;strokeColor=inherit;overflow=hidden;fillColor=none;top=0;left=0;bottom=0;right=0;pointerEvents=1;fontSize=12;" vertex="1" parent="acAV0KXZN9HWhHTJ8w7O-13">
          <mxGeometry x="224" width="56" height="30" as="geometry">
            <mxRectangle width="56" height="30" as="alternateBounds" />
          </mxGeometry>
        </mxCell>
        <mxCell id="acAV0KXZN9HWhHTJ8w7O-18" value="" style="shape=tableRow;horizontal=0;startSize=0;swimlaneHead=0;swimlaneBody=0;strokeColor=inherit;top=0;left=0;bottom=0;right=0;collapsible=0;dropTarget=0;fillColor=none;points=[[0,0.5],[1,0.5]];portConstraint=eastwest;fontSize=12;" vertex="1" parent="acAV0KXZN9HWhHTJ8w7O-7">
          <mxGeometry y="55" width="280" height="25" as="geometry" />
        </mxCell>
        <mxCell id="acAV0KXZN9HWhHTJ8w7O-19" value="日本" style="shape=partialRectangle;html=1;whiteSpace=wrap;connectable=0;strokeColor=inherit;overflow=hidden;fillColor=none;top=0;left=0;bottom=0;right=0;pointerEvents=1;fontSize=12;" vertex="1" parent="acAV0KXZN9HWhHTJ8w7O-18">
          <mxGeometry width="56" height="25" as="geometry">
            <mxRectangle width="56" height="25" as="alternateBounds" />
          </mxGeometry>
        </mxCell>
        <mxCell id="acAV0KXZN9HWhHTJ8w7O-20" value="上海" style="shape=partialRectangle;html=1;whiteSpace=wrap;connectable=0;strokeColor=inherit;overflow=hidden;fillColor=none;top=0;left=0;bottom=0;right=0;pointerEvents=1;fontSize=12;" vertex="1" parent="acAV0KXZN9HWhHTJ8w7O-18">
          <mxGeometry x="56" width="56" height="25" as="geometry">
            <mxRectangle width="56" height="25" as="alternateBounds" />
          </mxGeometry>
        </mxCell>
        <mxCell id="acAV0KXZN9HWhHTJ8w7O-21" value="9" style="shape=partialRectangle;html=1;whiteSpace=wrap;connectable=0;strokeColor=inherit;overflow=hidden;fillColor=none;top=0;left=0;bottom=0;right=0;pointerEvents=1;fontSize=12;" vertex="1" parent="acAV0KXZN9HWhHTJ8w7O-18">
          <mxGeometry x="112" width="56" height="25" as="geometry">
            <mxRectangle width="56" height="25" as="alternateBounds" />
          </mxGeometry>
        </mxCell>
        <mxCell id="acAV0KXZN9HWhHTJ8w7O-22" value="P1" style="shape=partialRectangle;html=1;whiteSpace=wrap;connectable=0;strokeColor=inherit;overflow=hidden;fillColor=none;top=0;left=0;bottom=0;right=0;pointerEvents=1;fontSize=12;" vertex="1" parent="acAV0KXZN9HWhHTJ8w7O-18">
          <mxGeometry x="168" width="56" height="25" as="geometry">
            <mxRectangle width="56" height="25" as="alternateBounds" />
          </mxGeometry>
        </mxCell>
        <mxCell id="acAV0KXZN9HWhHTJ8w7O-25" value="&lt;span style=&quot;color: rgb(0, 0, 255);&quot;&gt;记IQ&lt;/span&gt;" style="shape=partialRectangle;html=1;whiteSpace=wrap;connectable=0;strokeColor=inherit;overflow=hidden;fillColor=none;top=0;left=0;bottom=0;right=0;pointerEvents=1;fontSize=12;" vertex="1" parent="acAV0KXZN9HWhHTJ8w7O-18">
          <mxGeometry x="224" width="56" height="25" as="geometry">
            <mxRectangle width="56" height="25" as="alternateBounds" />
          </mxGeometry>
        </mxCell>
        <mxCell id="acAV0KXZN9HWhHTJ8w7O-27" value="" style="rounded=1;whiteSpace=wrap;html=1;strokeColor=default;align=center;verticalAlign=middle;fontFamily=Helvetica;fontSize=12;fontColor=default;fillColor=default;dashed=1;" vertex="1" parent="1">
          <mxGeometry x="40" y="80" width="290" height="130" as="geometry" />
        </mxCell>
        <mxCell id="acAV0KXZN9HWhHTJ8w7O-26" value="&lt;font style=&quot;color: rgb(96, 96, 96);&quot;&gt;日志数据&lt;/font&gt;" style="shape=cylinder3;whiteSpace=wrap;html=1;boundedLbl=1;backgroundOutline=1;size=15;strokeColor=#535353;align=center;verticalAlign=middle;fontFamily=Helvetica;fontSize=12;fontColor=default;fillColor=default;" vertex="1" parent="1">
          <mxGeometry x="60" y="113" width="60" height="60" as="geometry" />
        </mxCell>
        <mxCell id="acAV0KXZN9HWhHTJ8w7O-28" value="影响面评估" style="rounded=1;whiteSpace=wrap;html=1;strokeColor=default;align=center;verticalAlign=middle;fontFamily=Helvetica;fontSize=12;fontColor=default;fillColor=default;" vertex="1" parent="1">
          <mxGeometry x="180" y="115" width="100" height="55" as="geometry" />
        </mxCell>
        <mxCell id="acAV0KXZN9HWhHTJ8w7O-29" value="" style="endArrow=classic;html=1;rounded=0;fontFamily=Helvetica;fontSize=12;fontColor=default;exitX=0.724;exitY=1.031;exitDx=0;exitDy=0;entryX=0.707;entryY=0.025;entryDx=0;entryDy=0;entryPerimeter=0;exitPerimeter=0;strokeColor=light-dark(#635f5f, #ededed);" edge="1" parent="1" source="acAV0KXZN9HWhHTJ8w7O-27" target="acAV0KXZN9HWhHTJ8w7O-7">
          <mxGeometry width="50" height="50" relative="1" as="geometry">
            <mxPoint x="400" y="250" as="sourcePoint" />
            <mxPoint x="450" y="200" as="targetPoint" />
          </mxGeometry>
        </mxCell>
        <mxCell id="acAV0KXZN9HWhHTJ8w7O-30" value="" style="rounded=1;whiteSpace=wrap;html=1;strokeColor=default;align=center;verticalAlign=middle;fontFamily=Helvetica;fontSize=12;fontColor=default;fillColor=default;dashed=1;" vertex="1" parent="1">
          <mxGeometry x="450" y="295" width="300" height="220" as="geometry" />
        </mxCell>
        <mxCell id="acAV0KXZN9HWhHTJ8w7O-31" value="" style="endArrow=classic;html=1;rounded=0;fontFamily=Helvetica;fontSize=12;fontColor=default;exitX=1;exitY=0.5;exitDx=0;exitDy=0;exitPerimeter=0;entryX=0;entryY=0.5;entryDx=0;entryDy=0;" edge="1" parent="1" source="acAV0KXZN9HWhHTJ8w7O-26" target="acAV0KXZN9HWhHTJ8w7O-28">
          <mxGeometry width="50" height="50" relative="1" as="geometry">
            <mxPoint x="140" y="140" as="sourcePoint" />
            <mxPoint x="190" y="90" as="targetPoint" />
          </mxGeometry>
        </mxCell>
        <mxCell id="acAV0KXZN9HWhHTJ8w7O-32" value="" style="endArrow=classic;html=1;rounded=0;fontFamily=Helvetica;fontSize=12;fontColor=default;exitX=1;exitY=0.5;exitDx=0;exitDy=0;entryX=0;entryY=0.455;entryDx=0;entryDy=0;entryPerimeter=0;" edge="1" parent="1" source="acAV0KXZN9HWhHTJ8w7O-13" target="acAV0KXZN9HWhHTJ8w7O-30">
          <mxGeometry width="50" height="50" relative="1" as="geometry">
            <mxPoint x="390" y="420" as="sourcePoint" />
            <mxPoint x="440" y="370" as="targetPoint" />
          </mxGeometry>
        </mxCell>
        <mxCell id="acAV0KXZN9HWhHTJ8w7O-34" value="优先级判定" style="text;html=1;align=center;verticalAlign=middle;whiteSpace=wrap;rounded=0;fontFamily=Helvetica;fontSize=12;fontColor=default;" vertex="1" parent="1">
          <mxGeometry x="250" y="220" width="70" height="30" as="geometry" />
        </mxCell>
        <mxCell id="acAV0KXZN9HWhHTJ8w7O-35" value="生成IQ" style="rounded=1;whiteSpace=wrap;html=1;strokeColor=default;align=center;verticalAlign=middle;fontFamily=Helvetica;fontSize=12;fontColor=default;fillColor=default;" vertex="1" parent="1">
          <mxGeometry x="470" y="374" width="90" height="42" as="geometry" />
        </mxCell>
        <mxCell id="acAV0KXZN9HWhHTJ8w7O-36" value="问题修复" style="rounded=1;whiteSpace=wrap;html=1;strokeColor=default;align=center;verticalAlign=middle;fontFamily=Helvetica;fontSize=12;fontColor=default;fillColor=default;" vertex="1" parent="1">
          <mxGeometry x="630" y="376" width="90" height="40" as="geometry" />
        </mxCell>
        <mxCell id="acAV0KXZN9HWhHTJ8w7O-37" value="影响面分析" style="text;html=1;align=center;verticalAlign=middle;whiteSpace=wrap;rounded=0;fontFamily=Helvetica;fontSize=12;fontColor=#656565;" vertex="1" parent="1">
          <mxGeometry x="150" y="80" width="70" height="30" as="geometry" />
        </mxCell>
        <mxCell id="acAV0KXZN9HWhHTJ8w7O-38" value="根因分析" style="rounded=1;whiteSpace=wrap;html=1;strokeColor=default;align=center;verticalAlign=middle;fontFamily=Helvetica;fontSize=12;fontColor=default;fillColor=default;" vertex="1" parent="1">
          <mxGeometry x="630" y="320" width="90" height="40" as="geometry" />
        </mxCell>
        <mxCell id="acAV0KXZN9HWhHTJ8w7O-39" value="状态更新" style="rounded=1;whiteSpace=wrap;html=1;strokeColor=default;align=center;verticalAlign=middle;fontFamily=Helvetica;fontSize=12;fontColor=default;fillColor=default;" vertex="1" parent="1">
          <mxGeometry x="630" y="435" width="90" height="40" as="geometry" />
        </mxCell>
        <mxCell id="acAV0KXZN9HWhHTJ8w7O-40" value="" style="endArrow=classic;html=1;rounded=0;fontFamily=Helvetica;fontSize=12;fontColor=default;exitX=1;exitY=0.5;exitDx=0;exitDy=0;entryX=0;entryY=0.5;entryDx=0;entryDy=0;" edge="1" parent="1" source="acAV0KXZN9HWhHTJ8w7O-35" target="acAV0KXZN9HWhHTJ8w7O-38">
          <mxGeometry width="50" height="50" relative="1" as="geometry">
            <mxPoint x="560" y="630" as="sourcePoint" />
            <mxPoint x="610" y="580" as="targetPoint" />
          </mxGeometry>
        </mxCell>
        <mxCell id="acAV0KXZN9HWhHTJ8w7O-41" value="" style="endArrow=classic;html=1;rounded=0;fontFamily=Helvetica;fontSize=12;fontColor=default;exitX=1;exitY=0.5;exitDx=0;exitDy=0;entryX=0;entryY=0.5;entryDx=0;entryDy=0;" edge="1" parent="1" source="acAV0KXZN9HWhHTJ8w7O-35" target="acAV0KXZN9HWhHTJ8w7O-36">
          <mxGeometry width="50" height="50" relative="1" as="geometry">
            <mxPoint x="610" y="625" as="sourcePoint" />
            <mxPoint x="680" y="570" as="targetPoint" />
          </mxGeometry>
        </mxCell>
        <mxCell id="acAV0KXZN9HWhHTJ8w7O-42" value="" style="endArrow=classic;html=1;rounded=0;fontFamily=Helvetica;fontSize=12;fontColor=default;entryX=0;entryY=0.5;entryDx=0;entryDy=0;" edge="1" parent="1" target="acAV0KXZN9HWhHTJ8w7O-39">
          <mxGeometry width="50" height="50" relative="1" as="geometry">
            <mxPoint x="560" y="400" as="sourcePoint" />
            <mxPoint x="680" y="431" as="targetPoint" />
          </mxGeometry>
        </mxCell>
        <mxCell id="acAV0KXZN9HWhHTJ8w7O-43" value="生命周期管理" style="text;html=1;align=center;verticalAlign=middle;whiteSpace=wrap;rounded=0;fontFamily=Helvetica;fontSize=12;fontColor=#626262;" vertex="1" parent="1">
          <mxGeometry x="570" y="295" width="80" height="30" as="geometry" />
        </mxCell>
      </root>
    </mxGraphModel>
  </diagram>
</mxfile>
